<mxfile host="app.diagrams.net" modified="2024-03-07T10:55:56.732Z" agent="Mozilla/5.0 (Windows NT 10.0; Win64; x64) AppleWebKit/537.36 (KHTML, like Gecko) Chrome/122.0.0.0 Safari/537.36" etag="SmkFY9FzsBk0RntubsVr" version="24.0.2" type="device">
  <diagram name="Page-1" id="YUlN44A9gg_cxiwzPX0Z">
    <mxGraphModel dx="1235" dy="716" grid="1" gridSize="10" guides="1" tooltips="1" connect="1" arrows="1" fold="1" page="1" pageScale="1" pageWidth="850" pageHeight="1100" math="0" shadow="0">
      <root>
        <mxCell id="0" />
        <mxCell id="1" parent="0" />
        <mxCell id="lnb0aBH8O5DxswNknv1L-1" value="Function Component" style="swimlane;whiteSpace=wrap;html=1;" vertex="1" parent="1">
          <mxGeometry x="320" y="220" width="260" height="480" as="geometry" />
        </mxCell>
        <mxCell id="lnb0aBH8O5DxswNknv1L-26" style="edgeStyle=orthogonalEdgeStyle;rounded=0;orthogonalLoop=1;jettySize=auto;html=1;entryX=0.5;entryY=0;entryDx=0;entryDy=0;" edge="1" parent="lnb0aBH8O5DxswNknv1L-1" source="lnb0aBH8O5DxswNknv1L-4" target="lnb0aBH8O5DxswNknv1L-5">
          <mxGeometry relative="1" as="geometry" />
        </mxCell>
        <mxCell id="lnb0aBH8O5DxswNknv1L-4" value="State Hook" style="rounded=1;whiteSpace=wrap;html=1;shadow=0;textShadow=0;glass=0;" vertex="1" parent="lnb0aBH8O5DxswNknv1L-1">
          <mxGeometry x="70" y="70" width="120" height="60" as="geometry" />
        </mxCell>
        <mxCell id="lnb0aBH8O5DxswNknv1L-27" style="edgeStyle=orthogonalEdgeStyle;rounded=0;orthogonalLoop=1;jettySize=auto;html=1;entryX=0.5;entryY=0;entryDx=0;entryDy=0;" edge="1" parent="lnb0aBH8O5DxswNknv1L-1" source="lnb0aBH8O5DxswNknv1L-5" target="lnb0aBH8O5DxswNknv1L-18">
          <mxGeometry relative="1" as="geometry" />
        </mxCell>
        <mxCell id="lnb0aBH8O5DxswNknv1L-5" value="Container" style="rounded=1;whiteSpace=wrap;html=1;" vertex="1" parent="lnb0aBH8O5DxswNknv1L-1">
          <mxGeometry x="70" y="180" width="120" height="60" as="geometry" />
        </mxCell>
        <mxCell id="lnb0aBH8O5DxswNknv1L-12" value="Presentation" style="rounded=1;whiteSpace=wrap;html=1;" vertex="1" parent="lnb0aBH8O5DxswNknv1L-1">
          <mxGeometry x="70" y="380" width="120" height="60" as="geometry" />
        </mxCell>
        <mxCell id="lnb0aBH8O5DxswNknv1L-17" value="" style="curved=1;endArrow=classic;html=1;rounded=0;startSize=6;" edge="1" parent="lnb0aBH8O5DxswNknv1L-1">
          <mxGeometry width="50" height="50" relative="1" as="geometry">
            <mxPoint x="180" y="90" as="sourcePoint" />
            <mxPoint x="170" y="100" as="targetPoint" />
            <Array as="points">
              <mxPoint x="180" y="110" />
              <mxPoint x="170" y="120" />
            </Array>
          </mxGeometry>
        </mxCell>
        <mxCell id="lnb0aBH8O5DxswNknv1L-28" style="edgeStyle=orthogonalEdgeStyle;rounded=0;orthogonalLoop=1;jettySize=auto;html=1;entryX=0.5;entryY=0;entryDx=0;entryDy=0;" edge="1" parent="lnb0aBH8O5DxswNknv1L-1" source="lnb0aBH8O5DxswNknv1L-18" target="lnb0aBH8O5DxswNknv1L-12">
          <mxGeometry relative="1" as="geometry" />
        </mxCell>
        <mxCell id="lnb0aBH8O5DxswNknv1L-18" value="Effect Hook" style="rounded=1;whiteSpace=wrap;html=1;shadow=0;textShadow=0;glass=0;" vertex="1" parent="lnb0aBH8O5DxswNknv1L-1">
          <mxGeometry x="70" y="280" width="120" height="60" as="geometry" />
        </mxCell>
        <mxCell id="lnb0aBH8O5DxswNknv1L-23" value="" style="curved=1;endArrow=classic;html=1;rounded=0;startSize=6;" edge="1" parent="lnb0aBH8O5DxswNknv1L-1">
          <mxGeometry width="50" height="50" relative="1" as="geometry">
            <mxPoint x="180" y="300" as="sourcePoint" />
            <mxPoint x="170" y="310" as="targetPoint" />
            <Array as="points">
              <mxPoint x="180" y="320" />
              <mxPoint x="170" y="330" />
            </Array>
          </mxGeometry>
        </mxCell>
        <mxCell id="lnb0aBH8O5DxswNknv1L-29" value="Return" style="text;html=1;align=center;verticalAlign=middle;whiteSpace=wrap;rounded=0;" vertex="1" parent="lnb0aBH8O5DxswNknv1L-1">
          <mxGeometry x="130" y="350" width="50" height="20" as="geometry" />
        </mxCell>
        <mxCell id="lnb0aBH8O5DxswNknv1L-10" value="Request" style="text;html=1;align=center;verticalAlign=middle;whiteSpace=wrap;rounded=0;" vertex="1" parent="lnb0aBH8O5DxswNknv1L-1">
          <mxGeometry x="-30" y="160" width="60" height="30" as="geometry" />
        </mxCell>
        <mxCell id="lnb0aBH8O5DxswNknv1L-11" value="Response" style="text;html=1;align=center;verticalAlign=middle;whiteSpace=wrap;rounded=0;" vertex="1" parent="lnb0aBH8O5DxswNknv1L-1">
          <mxGeometry x="-30" y="236" width="60" height="30" as="geometry" />
        </mxCell>
        <mxCell id="lnb0aBH8O5DxswNknv1L-35" style="edgeStyle=orthogonalEdgeStyle;rounded=0;orthogonalLoop=1;jettySize=auto;html=1;exitX=1;exitY=0.75;exitDx=0;exitDy=0;entryX=0;entryY=0.75;entryDx=0;entryDy=0;" edge="1" parent="1" source="lnb0aBH8O5DxswNknv1L-25" target="lnb0aBH8O5DxswNknv1L-5">
          <mxGeometry relative="1" as="geometry" />
        </mxCell>
        <mxCell id="lnb0aBH8O5DxswNknv1L-25" value="&lt;span style=&quot;white-space: pre;&quot;&gt;&#x9;&lt;/span&gt;Backend &lt;br&gt;&amp;nbsp; &amp;nbsp; &amp;nbsp; Server" style="rounded=1;whiteSpace=wrap;html=1;" vertex="1" parent="1">
          <mxGeometry x="140" y="400" width="120" height="60" as="geometry" />
        </mxCell>
        <mxCell id="lnb0aBH8O5DxswNknv1L-34" style="edgeStyle=orthogonalEdgeStyle;rounded=0;orthogonalLoop=1;jettySize=auto;html=1;exitX=0;exitY=0.25;exitDx=0;exitDy=0;entryX=1;entryY=0.25;entryDx=0;entryDy=0;" edge="1" parent="1" source="lnb0aBH8O5DxswNknv1L-5" target="lnb0aBH8O5DxswNknv1L-25">
          <mxGeometry relative="1" as="geometry" />
        </mxCell>
        <mxCell id="lnb0aBH8O5DxswNknv1L-36" value="" style="shape=image;html=1;verticalLabelPosition=bottom;verticalAlign=top;imageAspect=1;aspect=fixed;image=img/clipart/Gear_128x128.png" vertex="1" parent="1">
          <mxGeometry x="150" y="410" width="34.1" height="40" as="geometry" />
        </mxCell>
      </root>
    </mxGraphModel>
  </diagram>
</mxfile>
